<?xml version="1.0" encoding="UTF-8" standalone="no"?>
<!-- Created with Inkscape (http://www.inkscape.org/) -->

<svg
   width="2047.9999"
   height="2047.9999"
   viewBox="0 0 541.86663 541.86663"
   version="1.1"
   id="svg1"
   xmlns="http://www.w3.org/2000/svg"
   xmlns:svg="http://www.w3.org/2000/svg">
  <defs
     id="defs1">
    <rect
       x="843.27344"
       y="683.75781"
       width="1132.6016"
       height="686.28125"
       id="rect10" />
    <rect
       x="843.27344"
       y="683.75781"
       width="1132.6016"
       height="686.28125"
       id="rect15" />
  </defs>
  <g
     id="g239"
     transform="matrix(3,0,0,3,-35.665442,-171.90304)"
     style="display:none">
    <path
       style="display:inline;fill:#000000;fill-opacity:1;stroke-width:0.529166"
       id="path2"
       d="m 17.453044,199.77182 a 64.045189,64.045189 0 0 1 3.427484,-70.3277 64.045189,64.045189 0 0 1 65.944822,-24.67819 L 72.604324,167.2123 Z"
       transform="rotate(-10)" />
    <path
       style="display:inline;fill:#000000;fill-opacity:1;stroke-width:0.529166"
       id="path5"
       d="m 130.8683,140.62103 a 64.045189,64.045189 0 0 1 -10.45857,69.21085 64.045189,64.045189 0 0 1 -67.561425,18.30238 L 72.604324,167.2123 Z"
       transform="rotate(-10)" />
    <circle
       style="display:inline;fill:#ffffff;fill-opacity:1;stroke-width:0.529166"
       id="path3"
       cx="100.54718"
       cy="152.05624"
       r="48.178268" />
    <path
       style="display:inline;fill:#000000;fill-opacity:1;stroke-width:0.710346"
       id="path4"
       transform="rotate(-10)"
       d="M 99.110077,85.426607 A 85.973564,85.973564 0 0 1 146.64139,123.50913 L 72.604324,167.2123 Z" />
    <path
       style="display:inline;fill:#ffffff;fill-opacity:1;stroke-width:0.761072"
       id="circle238"
       d="m 110.1253,83.436719 a 69.292229,69.292229 0 0 1 43.06354,23.579621 l -52.65242,45.04593 z" />
  </g>
  <g
     id="g8"
     style="display:none">
    <path
       style="display:inline;fill:#000000;fill-opacity:1;stroke-width:0.790407"
       id="path1"
       d="m -24.030682,345.87049 a 95.20015,96.128204 0 0 1 5.094793,-105.5579 95.20015,96.128204 0 0 1 98.023865,-37.04056 l -21.138883,93.72846 z"
       transform="matrix(0.98449814,-0.17539501,0.17191768,0.98511132,0,0)" />
    <path
       style="display:inline;fill:#000000;fill-opacity:1;stroke-width:0.790407"
       id="path6"
       d="M 144.55574,257.0885 A 95.20015,96.128204 0 0 1 129.00958,360.97007 95.20015,96.128204 0 0 1 28.582703,388.44091 l 29.36639,-91.44042 z"
       transform="matrix(0.98449814,-0.17539501,0.17191768,0.98511132,0,0)" />
    <ellipse
       style="display:inline;fill:#ffffff;fill-opacity:1;stroke-width:0.790403"
       id="circle6"
       cx="108.12492"
       cy="282.40237"
       rx="71.592209"
       ry="72.335136" />
    <path
       style="display:inline;fill:#000000;fill-opacity:1;stroke-width:1.06103"
       id="path7"
       transform="matrix(0.98449814,-0.17539501,0.17191768,0.98511132,0,0)"
       d="M 97.348643,174.24479 A 127.79565,129.04146 0 0 1 168.00169,231.4045 L 57.949093,297.00049 Z" />
    <path
       style="display:inline;fill:#ffffff;fill-opacity:1;stroke-width:1.1368"
       id="path8"
       d="m 122.35787,179.37659 a 102.96724,104.03577 0 0 1 63.99179,35.40258 l -78.24072,67.63224 z" />
    <text
       xml:space="preserve"
       transform="matrix(0.26458333,0,0,0.26458333,4.8906567,21.187337)"
       id="text10"
       style="font-size:192px;line-height:1.6;white-space:pre;shape-inside:url(#rect10);display:inline;fill:#000000"><tspan
         x="843.27344"
         y="893.06364"
         id="tspan2"><tspan
           style="font-weight:bold;font-family:Comfortaa;-inkscape-font-specification:'Comfortaa Bold'"
           id="tspan1">Circles
</tspan></tspan><tspan
         x="843.27344"
         y="1201.2735"
         id="tspan4"><tspan
           style="font-weight:bold;font-family:Comfortaa;-inkscape-font-specification:'Comfortaa Bold'"
           id="tspan3">Front Page</tspan></tspan></text>
  </g>
  <g
     id="g15"
     style="display:none">
    <path
       id="path9"
       style="display:inline;fill:#000000;fill-opacity:1;stroke-width:0.790407"
       d="m 79.088018,203.27225 a 96.128204,95.20015 90 0 0 -98.024096,37.04054 96.128204,95.20015 90 0 0 -5.094754,105.55793 L -3.6781922,333.7383 a 72.312846,71.614724 89.999982 0 1 -8.8831208,-49.30425 72.312846,71.614724 89.999982 0 1 82.962813,-58.65718 72.312846,71.614724 89.999982 0 1 3.452197,0.70383 z"
       transform="matrix(0.98449814,-0.17539501,0.17191768,0.98511132,0,0)" />
    <path
       id="path10"
       style="display:inline;fill:#000000;fill-opacity:1;stroke-width:0.790407"
       d="m 144.55597,257.08861 -21.45505,9.88767 a 72.312846,71.614724 89.999982 0 1 5.39136,42.57178 72.312846,71.614724 89.999982 0 1 -82.962306,58.65728 72.312846,71.614724 89.999982 0 1 -9.662011,-2.44892 l -7.28544,22.68431 A 96.128204,95.20015 90 0 0 129.00972,360.97034 96.128204,95.20015 90 0 0 144.55597,257.08861 Z"
       transform="matrix(0.98449814,-0.17539501,0.17191768,0.98511132,0,0)" />
    <path
       id="path11"
       style="display:inline;fill:#000000;fill-opacity:1;stroke-width:1.06103"
       d="m 97.348737,174.24485 -7.644106,23.81543 A 102.99962,104.00371 1.2052469e-4 0 1 146.649,244.13182 l 21.35249,-12.72709 A 127.79565,129.04146 0 0 0 97.348737,174.24485 Z m -4.284475,101.82559 -35.114023,20.92525 -0.0014,0.005 z"
       transform="matrix(0.98449814,-0.17539501,0.17191768,0.98511132,0,0)" />
    <text
       xml:space="preserve"
       transform="matrix(0.26458333,0,0,0.26458333,4.8906567,21.187337)"
       id="text15"
       style="font-size:192px;line-height:1.6;white-space:pre;shape-inside:url(#rect15);display:inline;fill:#000000"><tspan
         x="843.27344"
         y="893.06364"
         id="tspan6"><tspan
           style="font-weight:bold;font-family:Comfortaa;-inkscape-font-specification:'Comfortaa Bold'"
           id="tspan5">Circles
</tspan></tspan><tspan
         x="843.27344"
         y="1201.2735"
         id="tspan8"><tspan
           style="font-weight:bold;font-family:Comfortaa;-inkscape-font-specification:'Comfortaa Bold'"
           id="tspan7">Front Page</tspan></tspan></text>
  </g>
  <g
     id="g18"
     transform="matrix(3,0,0,3,-35.665442,-171.90304)"
     style="display:inline;fill:#ffffff">
    <path
       id="path15"
       style="display:inline;fill:#ffffff;fill-opacity:1;stroke-width:0.529166"
       d="m 86.825382,104.76594 a 64.045189,64.045189 52.972698 0 0 -65.944785,24.67813 64.045189,64.045189 52.972698 0 0 -3.427512,70.32773 l 13.691884,-8.08327 a 48.178268,48.178268 0 0 1 -5.976,-32.84855 48.178268,48.178268 0 0 1 55.812417,-39.08028 48.178268,48.178268 0 0 1 2.322719,0.46886 z"
       transform="rotate(-10)" />
    <path
       id="path16"
       style="display:inline;fill:#ffffff;fill-opacity:1;stroke-width:0.529166"
       d="m 130.86822,140.62101 -14.43353,6.58749 a 48.178268,48.178268 0 0 1 3.62697,28.36362 48.178268,48.178268 0 0 1 -55.812416,39.08027 48.178268,48.178268 0 0 1 -6.499931,-1.63166 l -4.900997,15.11351 a 64.045189,64.045189 52.972698 0 0 67.561424,-18.30228 64.045189,64.045189 52.972698 0 0 10.45848,-69.21095 z"
       transform="rotate(-10)" />
    <path
       id="path17"
       style="display:inline;fill:#ffffff;fill-opacity:1;stroke-width:0.710346"
       d="m 99.110114,85.426627 -5.14233,15.867163 a 69.292229,69.292229 45 0 1 38.308716,30.69473 l 14.36482,-8.47939 A 85.973564,85.973564 0 0 0 99.110114,85.426627 Z m -4.059987,68.536183 -22.44484,13.24654 -0.001,0.003 z"
       transform="rotate(-10)" />
  </g>
</svg>
